<svg xmlns="http://www.w3.org/2000/svg" viewBox="0 0 128 128">
  <defs>
    <linearGradient id="bg" x1="18" x2="110" y1="12" y2="116" gradientUnits="userSpaceOnUse">
      <stop offset="0" stop-color="#234a36"/>
      <stop offset="1" stop-color="#10251c"/>
    </linearGradient>
    <linearGradient id="steel" x1="32" x2="96" y1="28" y2="100" gradientUnits="userSpaceOnUse">
      <stop offset="0" stop-color="#f6faf7"/>
      <stop offset="1" stop-color="#d4ddd7"/>
    </linearGradient>
  </defs>
  <rect width="128" height="128" rx="24" fill="url(#bg)"/>
  <rect x="14" y="14" width="100" height="100" rx="18" fill="none" stroke="#82c29c" stroke-opacity=".22" stroke-width="2"/>
  <path d="M26 92V36h14v44h42v12H26z" fill="#9bc7aa" fill-opacity=".18"/>
  <path d="M87 32c-7-5-15-8-24-8-23 0-41 18-41 40s18 40 41 40c9 0 17-3 24-8l-9-9c-4 3-9 5-15 5-16 0-28-12-28-28s12-28 28-28c6 0 11 2 15 5l9-9z" fill="url(#steel)"/>
  <path d="M96 34l-16 16" stroke="#82c29c" stroke-width="4" stroke-linecap="round"/>
  <path d="M92 50h-10" stroke="#82c29c" stroke-width="4" stroke-linecap="round"/>
</svg>
